<svg width="28" height="28" viewBox="0 0 28 28" fill="none" xmlns="http://www.w3.org/2000/svg">
<path d="M25.4545 20.3636V8.90909H7.63636V20.3636H25.4545ZM25.4545 2.54545C26.8545 2.54545 28 3.69091 28 5.09091V20.3636C28 21.7636 26.8545 22.9091 25.4545 22.9091H7.63636C6.22364 22.9091 5.09091 21.7636 5.09091 20.3636V5.09091C5.09091 3.69091 6.23636 2.54545 7.63636 2.54545H8.90909V0H11.4545V2.54545H21.6364V0H24.1818V2.54545H25.4545ZM2.54545 25.4545H20.3636V28H2.54545C1.13273 28 0 26.8545 0 25.4545V10.1818H2.54545V25.4545Z" fill="#474851"/>
</svg>
