<svg width="28" height="28" viewBox="0 0 28 28" fill="none" xmlns="http://www.w3.org/2000/svg">
<path d="M16.8571 8H14.7143V15.5L20.8286 19.31L21.8571 17.495L16.8571 14.375V8ZM16.1429 0.5C12.7329 0.5 9.46267 1.92232 7.05148 4.45406C4.6403 6.9858 3.28571 10.4196 3.28571 14H-1L4.65714 20.045L10.4286 14H6.14286C6.14286 11.2152 7.19643 8.54451 9.07179 6.57538C10.9472 4.60625 13.4907 3.5 16.1429 3.5C18.795 3.5 21.3386 4.60625 23.2139 6.57538C25.0893 8.54451 26.1429 11.2152 26.1429 14C26.1429 16.7848 25.0893 19.4555 23.2139 21.4246C21.3386 23.3938 18.795 24.5 16.1429 24.5C13.3857 24.5 10.8857 23.315 9.08572 21.41L7.05714 23.54C9.38571 26 12.5714 27.5 16.1429 27.5C19.5528 27.5 22.823 26.0777 25.2342 23.5459C27.6454 21.0142 29 17.5804 29 14C29 10.4196 27.6454 6.9858 25.2342 4.45406C22.823 1.92232 19.5528 0.5 16.1429 0.5Z" fill="#474851"/>
</svg>
