<svg width="29" height="28" viewBox="0 0 29 28" fill="none" xmlns="http://www.w3.org/2000/svg">
<path d="M14.5 0C16.3565 0 18.137 0.737498 19.4497 2.05025C20.7625 3.36301 21.5 5.14348 21.5 7C21.5 8.85652 20.7625 10.637 19.4497 11.9497C18.137 13.2625 16.3565 14 14.5 14C12.6435 14 10.863 13.2625 9.55025 11.9497C8.2375 10.637 7.5 8.85652 7.5 7C7.5 5.14348 8.2375 3.36301 9.55025 2.05025C10.863 0.737498 12.6435 0 14.5 0ZM14.5 3.5C13.5717 3.5 12.6815 3.86875 12.0251 4.52513C11.3687 5.1815 11 6.07174 11 7C11 7.92826 11.3687 8.8185 12.0251 9.47487C12.6815 10.1313 13.5717 10.5 14.5 10.5C15.4283 10.5 16.3185 10.1313 16.9749 9.47487C17.6313 8.8185 18 7.92826 18 7C18 6.07174 17.6313 5.1815 16.9749 4.52513C16.3185 3.86875 15.4283 3.5 14.5 3.5ZM14.5 15.75C19.1725 15.75 28.5 18.0775 28.5 22.75V28H0.5V22.75C0.5 18.0775 9.8275 15.75 14.5 15.75ZM14.5 19.075C9.3025 19.075 3.825 21.63 3.825 22.75V24.675H25.175V22.75C25.175 21.63 19.6975 19.075 14.5 19.075Z" fill="#474851"/>
</svg>
